# xmcd
#
# Track frame offsets:
# 150
# 19084
# 36550
# 54769
# 77588
# 107959
# 128246
# 153755
# 176670
# 192530
#
# Disc length: 2784 seconds
#
# Revision: 0
# Processed by: cddbd v1.5.2PL0 Copyright (c) Steve Scherf et al.
# Submitted via: Audion 3.0.2 (http://www.panic.com/audion/)
#
DISCID=7e0ade0a
DTITLE=Mike Gibbons - Jetlag Chronicles
DYEAR=1900
DGENRE=
TTITLE0=The Time Has Come
TTITLE1=Alive
TTITLE2=Don't Shy Away
TTITLE3=Parent's Song
TTITLE4=July in Sringar
TTITLE5=This Kind of Life
TTITLE6=Goodbye
TTITLE7=In Your Mind
TTITLE8=The Silence
TTITLE9=Nuthin but a G Thang
EXTD=
EXTT0=
EXTT1=
EXTT2=
EXTT3=
EXTT4=
EXTT5=
EXTT6=
EXTT7=
EXTT8=
EXTT9=
PLAYORDER=
